<svg id="svg" version="1.1" xmlns="http://www.w3.org/2000/svg" xmlns:xlink="http://www.w3.org/1999/xlink" width="400" height="400" viewBox="0, 0, 400,400"><g id="svgg"><path id="path0" d="M121.838 99.539 C 121.723 99.725,121.514 132.994,121.373 173.469 C 121.098 252.853,121.004 248.400,122.954 248.400 C 123.227 248.400,123.968 248.940,124.600 249.600 L 125.750 250.800 135.587 250.800 C 153.045 250.800,168.092 247.931,176.671 242.967 C 180.143 240.958,180.438 241.352,182.390 250.600 C 182.808 252.580,183.517 255.820,183.965 257.800 C 184.413 259.780,185.053 262.660,185.389 264.200 C 185.724 265.740,186.260 268.080,186.580 269.400 C 186.901 270.720,187.544 273.600,188.009 275.800 C 188.474 278.000,189.195 281.330,189.611 283.200 C 190.754 288.339,191.929 294.020,192.197 295.701 C 192.393 296.929,192.711 297.342,193.945 297.972 C 194.775 298.395,195.689 299.025,195.976 299.371 C 196.818 300.385,198.922 300.176,208.541 298.121 C 213.979 296.960,214.658 295.318,212.447 288.677 C 211.735 286.539,207.553 268.223,205.073 256.380 C 203.767 250.146,203.918 249.977,212.534 248.043 C 221.730 245.978,218.912 244.157,240.541 266.146 C 253.988 279.819,258.495 284.161,260.121 285.012 L 262.233 286.118 269.216 284.621 C 284.861 281.267,284.845 281.315,273.940 270.631 C 248.253 245.465,242.000 239.200,242.000 238.631 C 242.000 238.280,243.215 236.678,244.700 235.073 C 260.031 218.495,264.477 199.445,257.741 179.200 C 251.608 160.764,234.899 146.705,215.714 143.836 C 209.945 142.974,209.177 142.579,207.806 139.776 C 197.747 119.218,176.502 104.187,152.400 100.578 C 143.764 99.285,122.443 98.560,121.838 99.539 M152.273 122.220 C 165.879 124.240,175.495 129.779,184.092 140.548 C 187.530 144.854,187.962 146.274,186.000 146.814 C 184.907 147.114,179.561 148.320,173.600 149.611 C 168.878 150.633,162.844 152.002,161.859 152.275 C 160.984 152.517,161.139 154.750,162.409 160.200 C 163.111 163.212,163.815 166.365,165.581 174.400 C 166.332 177.818,167.312 182.222,168.762 188.703 C 169.193 190.626,169.929 194.000,170.397 196.200 C 171.394 200.883,172.481 205.845,173.391 209.872 C 173.747 211.452,174.185 213.664,174.363 214.789 L 174.686 216.833 172.877 218.425 C 166.553 223.992,147.394 230.191,143.797 227.835 L 142.800 227.182 142.798 218.091 C 142.797 213.091,142.683 190.370,142.545 167.600 C 142.357 136.590,142.411 125.775,142.761 124.505 C 143.578 121.541,145.152 121.163,152.273 122.220 M222.704 167.787 C 248.085 179.604,243.165 218.161,215.500 224.249 C 213.905 224.600,211.070 225.228,209.200 225.644 C 198.295 228.069,197.990 227.858,202.772 221.200 C 212.518 207.633,217.436 190.918,216.668 173.974 C 216.326 166.426,217.405 165.320,222.704 167.787 M194.845 169.500 C 196.218 173.055,194.416 187.583,192.115 191.509 C 190.792 193.766,191.218 195.064,187.368 177.042 C 186.451 172.750,186.444 170.187,187.349 169.989 C 187.377 169.983,188.390 169.635,189.600 169.217 C 192.904 168.074,194.324 168.151,194.845 169.500 " stroke="none" fill="#1e1f1f" fill-rule="evenodd"></path><path id="path1" d="M0.000 200.000 L 0.000 400.000 200.000 400.000 L 400.000 400.000 400.000 200.000 L 400.000 0.000 200.000 0.000 L 0.000 0.000 0.000 200.000 M144.400 99.589 C 173.901 102.388,196.530 116.730,207.806 139.776 C 209.177 142.579,209.945 142.974,215.714 143.836 C 234.899 146.705,251.608 160.764,257.741 179.200 C 264.477 199.445,260.031 218.495,244.700 235.073 C 243.215 236.678,242.000 238.280,242.000 238.631 C 242.000 239.200,248.253 245.465,273.940 270.631 C 284.845 281.315,284.861 281.267,269.216 284.621 L 262.233 286.118 260.121 285.012 C 258.495 284.161,253.988 279.819,240.541 266.146 C 218.912 244.157,221.730 245.978,212.534 248.043 C 203.918 249.977,203.767 250.146,205.073 256.380 C 207.553 268.223,211.735 286.539,212.447 288.677 C 214.658 295.318,213.979 296.960,208.541 298.121 C 198.922 300.176,196.818 300.385,195.976 299.371 C 195.689 299.025,194.775 298.395,193.945 297.972 C 192.711 297.342,192.393 296.929,192.197 295.701 C 191.929 294.020,190.754 288.339,189.611 283.200 C 189.195 281.330,188.474 278.000,188.009 275.800 C 187.544 273.600,186.901 270.720,186.580 269.400 C 186.260 268.080,185.724 265.740,185.389 264.200 C 185.053 262.660,184.413 259.780,183.965 257.800 C 183.517 255.820,182.808 252.580,182.390 250.600 C 180.438 241.352,180.143 240.958,176.671 242.967 C 168.092 247.931,153.045 250.800,135.587 250.800 L 125.750 250.800 124.600 249.600 C 123.968 248.940,123.227 248.400,122.954 248.400 C 121.004 248.400,121.098 252.853,121.373 173.469 C 121.514 132.994,121.723 99.725,121.838 99.539 C 122.115 99.091,139.556 99.130,144.400 99.589 M144.314 122.221 C 142.258 123.337,142.274 122.937,142.545 167.600 C 142.683 190.370,142.797 213.091,142.798 218.091 L 142.800 227.182 143.797 227.835 C 147.394 230.191,166.553 223.992,172.877 218.425 L 174.686 216.833 174.363 214.789 C 174.185 213.664,173.747 211.452,173.391 209.872 C 172.481 205.845,171.394 200.883,170.397 196.200 C 169.929 194.000,169.193 190.626,168.762 188.703 C 167.312 182.222,166.332 177.818,165.581 174.400 C 163.815 166.365,163.111 163.212,162.409 160.200 C 161.139 154.750,160.984 152.517,161.859 152.275 C 162.844 152.002,168.878 150.633,173.600 149.611 C 179.561 148.320,184.907 147.114,186.000 146.814 C 190.656 145.532,177.750 131.694,167.178 126.632 C 159.496 122.954,147.299 120.601,144.314 122.221 M217.034 167.674 C 216.525 168.399,216.463 169.467,216.668 173.974 C 217.436 190.918,212.518 207.633,202.772 221.200 C 197.990 227.858,198.295 228.069,209.200 225.644 C 211.070 225.228,213.905 224.600,215.500 224.249 C 236.721 219.579,246.585 193.158,233.431 176.218 C 228.376 169.709,219.022 164.834,217.034 167.674 M189.600 169.217 C 188.390 169.635,187.377 169.983,187.349 169.989 C 186.444 170.187,186.451 172.750,187.368 177.042 C 191.218 195.064,190.792 193.766,192.115 191.509 C 193.860 188.531,194.900 183.331,195.095 176.600 C 195.347 167.927,194.934 167.372,189.600 169.217 " stroke="none" fill="#efefef" fill-rule="evenodd"></path></g></svg>